<svg xmlns="http://www.w3.org/2000/svg" width="1400" height="550" viewBox="0 0 1400 550">
<rect width="1400" height="550" fill="#101828"/>
<g font-family="monospace" fill="white" font-size="25">
<text x="40" y="48">LANE 7 · GAME 1 · BOWLING SCORES</text>
<text x="200" y="100">1</text><text x="320" y="100">2</text><text x="440" y="100">3</text><text x="560" y="100">4</text><text x="680" y="100">5</text><text x="800" y="100">6</text><text x="920" y="100">7</text><text x="1040" y="100">8</text><text x="1160" y="100">9</text><text x="1280" y="100">10</text>
<text x="30" y="165">Doug</text><text x="200" y="155">X</text><text x="300" y="155">7 /</text><text x="420" y="155">9 -</text>
<text x="200" y="195" fill="#fff180">20</text><text x="320" y="195" fill="#fff180">39</text><text x="440" y="195" fill="#fff180">48</text>
<text x="30" y="265">Mustafa</text><text x="180" y="255">8 /</text><text x="320" y="255">X</text><text x="440" y="255">X</text>
<text x="200" y="295" fill="#fff180">20</text>
<text x="30" y="365">Kyle</text><text x="180" y="355">9 -</text><text x="300" y="355">8 1</text><text x="420" y="355">7</text>
<text x="200" y="395" fill="#fff180">9</text><text x="320" y="395" fill="#fff180">18</text>
<text x="30" y="465">Pete</text><text x="200" y="455">X</text><text x="320" y="455">X</text><text x="440" y="455">X</text>
<text x="200" y="495" fill="#fff180">30</text>
</g>
<g stroke="#7a8795" stroke-width="1"><path d="M160 115H1380 M160 215H1380 M160 315H1380 M160 415H1380 M160 515H1380 M160 115V515 M280 115V515 M400 115V515 M520 115V515 M640 115V515 M760 115V515 M880 115V515 M1000 115V515 M1120 115V515 M1240 115V515 M1380 115V515"/></g>
</svg>
